<?xml version="1.0" encoding="iso-8859-1"?>
<!-- Uploaded to: SVG Repo, www.svgrepo.com, Generator: SVG Repo Mixer Tools -->
<svg fill="#000000" height="800px" width="800px" version="1.1" id="Layer_1" xmlns="http://www.w3.org/2000/svg" xmlns:xlink="http://www.w3.org/1999/xlink" 
	 viewBox="0 0 512 512" xml:space="preserve">
<g>
	<g>
		<path d="M484.393,211.029L416.107,94.195c-12.9-22.072-34.754-37.19-59.956-41.479c-25.199-4.287-50.826,2.75-70.3,19.312
			c-13.528,11.504-15.505,31.433-4.501,45.37c7.925,10.041,21.08,14.582,33.509,11.57l10.872-2.633
			c5.276-1.276,10.787,1.552,12.825,6.58l31.668,78.113H141.776l31.667-78.113c2.039-5.029,7.553-7.856,12.827-6.58l10.871,2.632
			c12.433,3.012,25.584-1.529,33.51-11.569c11.004-13.938,9.026-33.867-4.501-45.37c-19.475-16.562-45.096-23.603-70.3-19.312
			c-25.203,4.289-47.056,19.407-59.956,41.479L27.608,211.029H0v249.485h202.236l54.062-66.736l53.406,66.736H512V211.029H484.393z
			 M369.501,120.372c-8.204-20.243-30.401-31.629-51.632-26.488l-8.515,2.063c11.674-9.051,26.546-12.803,41.195-10.31
			c15.439,2.627,28.826,11.89,36.729,25.411l58.438,99.985h-39.462L369.501,120.372z M124.722,111.046
			c7.903-13.521,21.29-22.783,36.73-25.411c14.644-2.491,29.52,1.26,41.194,10.31l-8.516-2.062
			c-21.227-5.141-43.425,6.245-51.631,26.487l-36.754,90.66H66.284L124.722,111.046z M478.609,427.123h-152.86l-69.294-86.587
			l-70.143,86.587H33.391V244.421h445.217V427.123z"/>
	</g>
</g>
<g>
	<g>
		<path d="M236.922,290.864c-7.113-14.917-21.798-24.183-38.324-24.183H55.652v138.181h120.045l55.893-68.996
			C241.992,323.025,244.036,305.781,236.922,290.864z M205.645,314.847l-45.871,56.625H89.044v-0.001v-71.398h109.556
			c5.164,0,7.444,3.612,8.184,5.165C207.524,306.79,208.895,310.835,205.645,314.847z"/>
	</g>
</g>
<g>
	<g>
		<path d="M314.222,266.681c-16.471,0-31.135,9.223-38.269,24.068c-7.135,14.846-5.173,32.058,5.119,44.919l55.373,69.193h119.903
			V266.681H314.222z M422.957,371.471h-70.466l-45.349-56.666c-3.216-4.018-1.835-8.047-1.093-9.592
			c0.743-1.545,3.026-5.14,8.173-5.14h108.734V371.471z"/>
	</g>
</g>
</svg>