<svg xmlns="http://www.w3.org/2000/svg" xmlns:xlink="http://www.w3.org/1999/xlink" contentStyleType="text/css" data-diagram-type="ACTIVITY" height="513px" preserveAspectRatio="none" style="width:328px;height:513px;background:#FFFFFF;" version="1.1" viewBox="0 0 328 513" width="328px" zoomAndPan="magnify"><title>Menu Tree Diagram - Quizy Game App</title><defs/><g><text fill="#000000" font-family="sans-serif" font-size="14" font-weight="bold" lengthAdjust="spacing" textLength="300.5283" x="10" y="22.9951">Menu Tree Diagram - Quizy Game App</text><ellipse cx="167.7847" cy="53.2969" fill="#222222" rx="10" ry="10" style="stroke:#222222;stroke-width:1;"/><rect fill="#F1F1F1" height="33.9688" rx="12.5" ry="12.5" style="stroke:#181818;stroke-width:0.5;" width="55.4375" x="140.2847" y="103.2969"/><text fill="#000000" font-family="sans-serif" font-size="12" lengthAdjust="spacing" textLength="35.4375" x="150.2847" y="124.4355">Home</text><rect fill="#F1F1F1" height="33.9688" rx="12.5" ry="12.5" style="stroke:#181818;stroke-width:0.5;" width="79.8125" x="127.7847" y="177.2969"/><text fill="#000000" font-family="sans-serif" font-size="12" lengthAdjust="spacing" textLength="59.8125" x="137.7847" y="198.4355">Start Quiz</text><rect fill="#F1F1F1" height="33.9688" rx="12.5" ry="12.5" style="stroke:#181818;stroke-width:0.5;" width="186.3359" x="74.7847" y="251.2969"/><text fill="#000000" font-family="sans-serif" font-size="12" lengthAdjust="spacing" textLength="166.3359" x="84.7847" y="272.4355">Select Category &amp; Difficulty</text><rect fill="#F1F1F1" height="33.9688" rx="12.5" ry="12.5" style="stroke:#181818;stroke-width:0.5;" width="193.959" x="70.7847" y="325.2969"/><text fill="#000000" font-family="sans-serif" font-size="12" lengthAdjust="spacing" textLength="173.959" x="80.7847" y="346.4355">Play Quiz (Questions Screen)</text><rect fill="#F1F1F1" height="33.9688" rx="12.5" ry="12.5" style="stroke:#181818;stroke-width:0.5;" width="164.8555" x="85.2847" y="399.2969"/><text fill="#000000" font-family="sans-serif" font-size="12" lengthAdjust="spacing" textLength="144.8555" x="95.2847" y="420.4355">Show Score &amp; Feedback</text><rect fill="#F1F1F1" height="33.9688" rx="12.5" ry="12.5" style="stroke:#181818;stroke-width:0.5;" width="94.168" x="76.7847" y="473.2969"/><text fill="#000000" font-family="sans-serif" font-size="12" lengthAdjust="spacing" textLength="74.168" x="86.7847" y="494.4355">Restart Quiz</text><rect fill="#F1F1F1" height="33.9688" rx="12.5" ry="12.5" style="stroke:#181818;stroke-width:0.5;" width="42.7227" x="191.2847" y="473.2969"/><text fill="#000000" font-family="sans-serif" font-size="12" lengthAdjust="spacing" textLength="22.7227" x="201.2847" y="494.4355">Exit</text><!--link start to Home--><g id="link_start_Home"><path d="M167.7847,63.3369 C167.7847,73.5869 167.7847,84.5169 167.7847,97.0769 " fill="transparent" id="start-to-Home" style="stroke:#181818;stroke-width:1;"/><polygon fill="#181818" points="167.7847,103.0769,171.7847,94.0769,167.7847,98.0769,163.7847,94.0769,167.7847,103.0769" style="stroke:#181818;stroke-width:1;"/></g><!--link Home to Start Quiz--><g id="link_Home_Start Quiz"><path d="M167.7847,137.6369 C167.7847,149.4169 167.7847,159.2569 167.7847,171.0269 " fill="transparent" id="Home-to-Start Quiz" style="stroke:#181818;stroke-width:1;"/><polygon fill="#181818" points="167.7847,177.0269,171.7847,168.0269,167.7847,172.0269,163.7847,168.0269,167.7847,177.0269" style="stroke:#181818;stroke-width:1;"/></g><!--link Start Quiz to Select Category & Difficulty--><g id="link_Start Quiz_Select Category &amp; Difficulty"><path d="M167.7847,211.6369 C167.7847,223.4169 167.7847,233.2569 167.7847,245.0269 " fill="transparent" id="Start Quiz-to-Select Category &amp; Difficulty" style="stroke:#181818;stroke-width:1;"/><polygon fill="#181818" points="167.7847,251.0269,171.7847,242.0269,167.7847,246.0269,163.7847,242.0269,167.7847,251.0269" style="stroke:#181818;stroke-width:1;"/></g><!--link Select Category & Difficulty to Play Quiz (Questions Screen)--><g id="link_Select Category &amp; Difficulty_Play Quiz (Questions Screen)"><path d="M167.7847,285.6369 C167.7847,297.4169 167.7847,307.2569 167.7847,319.0269 " fill="transparent" id="Select Category &amp; Difficulty-to-Play Quiz (Questions Screen)" style="stroke:#181818;stroke-width:1;"/><polygon fill="#181818" points="167.7847,325.0269,171.7847,316.0269,167.7847,320.0269,163.7847,316.0269,167.7847,325.0269" style="stroke:#181818;stroke-width:1;"/></g><!--link Play Quiz (Questions Screen) to Show Score & Feedback--><g id="link_Play Quiz (Questions Screen)_Show Score &amp; Feedback"><path d="M167.7847,359.6369 C167.7847,371.4169 167.7847,381.2569 167.7847,393.0269 " fill="transparent" id="Play Quiz (Questions Screen)-to-Show Score &amp; Feedback" style="stroke:#181818;stroke-width:1;"/><polygon fill="#181818" points="167.7847,399.0269,171.7847,390.0269,167.7847,394.0269,163.7847,390.0269,167.7847,399.0269" style="stroke:#181818;stroke-width:1;"/></g><!--link Show Score & Feedback to Restart Quiz--><g id="link_Show Score &amp; Feedback_Restart Quiz"><path d="M157.8047,433.6369 C150.5947,445.4169 144.0557,456.1386 136.8557,467.9086 " fill="transparent" id="Show Score &amp; Feedback-to-Restart Quiz" style="stroke:#181818;stroke-width:1;"/><polygon fill="#181818" points="133.7247,473.0269,141.8333,467.4368,136.3338,468.7616,135.009,463.2621,133.7247,473.0269" style="stroke:#181818;stroke-width:1;"/></g><!--link Show Score & Feedback to Exit--><g id="link_Show Score &amp; Feedback_Exit"><path d="M177.9947,433.6369 C185.3647,445.4169 192.0735,456.1696 199.4335,467.9396 " fill="transparent" id="Show Score &amp; Feedback-to-Exit" style="stroke:#181818;stroke-width:1;"/><polygon fill="#181818" points="202.6147,473.0269,201.2344,463.2752,199.9637,468.7875,194.4514,467.5168,202.6147,473.0269" style="stroke:#181818;stroke-width:1;"/></g><!--SRC=[VOzD3e9038NtdA9XOS24AvWOVpSc8bwWZWKd30mPEj7nz0uC2nQ6LTFtsk-rB5aHNAYrS3T4i9TO6MmWWzpAhuCJDWJRhekYP9r2bcqWFkk6uYYKe1ICXiS5hy-QoIL5Wc67J9Ks3bO-f2obi8hTCBza1y9LeHk9aEIMUfQwxQ4G_juszOH5UxhXfTzUqeOy_qZqVA2eX_2_UjYvUTJyhuNHmqTo_0C0]--></g></svg>