<svg xmlns="http://www.w3.org/2000/svg" xmlns:xlink="http://www.w3.org/1999/xlink" contentStyleType="text/css" data-diagram-type="SEQUENCE" height="648px" preserveAspectRatio="none" style="width:389px;height:648px;background:#FFFFFF;" version="1.1" viewBox="0 0 389 648" width="389px" zoomAndPan="magnify"><title>Sequence Diagram - Quizy Game App</title><defs/><g><text fill="#000000" font-family="sans-serif" font-size="14" font-weight="bold" lengthAdjust="spacing" textLength="293.6719" x="47.1619" y="27.9951">Sequence Diagram - Quizy Game App</text><rect fill="transparent" height="214.7969" style="stroke:#000000;stroke-width:1.5;" width="312.3535" x="10" y="265.125"/><g><title>User</title><rect fill="transparent" height="449.5938" width="8" x="34.9551" y="118.5938"/><line style="stroke:#181818;stroke-width:0.5;stroke-dasharray:5.0,5.0;" x1="38" x2="38" y1="118.5938" y2="568.1875"/></g><g><title>Quiz App Interface</title><rect fill="transparent" height="449.5938" width="8" x="170.8198" y="118.5938"/><line style="stroke:#181818;stroke-width:0.5;stroke-dasharray:5.0,5.0;" x1="174.7896" x2="174.7896" y1="118.5938" y2="568.1875"/></g><g><title>questions.json</title><rect fill="transparent" height="449.5938" width="8" x="322.5703" y="118.5938"/><line style="stroke:#181818;stroke-width:0.5;stroke-dasharray:5.0,5.0;" x1="326.145" x2="326.145" y1="118.5938" y2="568.1875"/></g><text fill="#000000" font-family="sans-serif" font-size="14" lengthAdjust="spacing" textLength="31.9102" x="20" y="115.292">User</text><ellipse cx="38.9551" cy="50.7969" fill="#E2E2F0" rx="8" ry="8" style="stroke:#181818;stroke-width:0.5;"/><path d="M38.9551,58.7969 L38.9551,85.7969 M25.9551,66.7969 L51.9551,66.7969 M38.9551,85.7969 L25.9551,100.7969 M38.9551,85.7969 L51.9551,100.7969 " fill="transparent" style="stroke:#181818;stroke-width:0.5;"/><text fill="#000000" font-family="sans-serif" font-size="14" lengthAdjust="spacing" textLength="31.9102" x="20" y="580.1826">User</text><ellipse cx="38.9551" cy="591.9844" fill="#E2E2F0" rx="8" ry="8" style="stroke:#181818;stroke-width:0.5;"/><path d="M38.9551,599.9844 L38.9551,626.9844 M25.9551,607.9844 L51.9551,607.9844 M38.9551,626.9844 L25.9551,641.9844 M38.9551,626.9844 L51.9551,641.9844 " fill="transparent" style="stroke:#181818;stroke-width:0.5;"/><rect fill="#E2E2F0" height="30.2969" rx="2.5" ry="2.5" style="stroke:#181818;stroke-width:0.5;" width="144.0605" x="102.7896" y="87.2969"/><text fill="#000000" font-family="sans-serif" font-size="14" lengthAdjust="spacing" textLength="130.0605" x="109.7896" y="107.292">Quiz App Interface</text><rect fill="#E2E2F0" height="30.2969" rx="2.5" ry="2.5" style="stroke:#181818;stroke-width:0.5;" width="144.0605" x="102.7896" y="567.1875"/><text fill="#000000" font-family="sans-serif" font-size="14" lengthAdjust="spacing" textLength="130.0605" x="109.7896" y="587.1826">Quiz App Interface</text><rect fill="#E2E2F0" height="30.2969" rx="2.5" ry="2.5" style="stroke:#181818;stroke-width:0.5;" width="114.8506" x="269.145" y="87.2969"/><text fill="#000000" font-family="sans-serif" font-size="14" lengthAdjust="spacing" textLength="100.8506" x="276.145" y="107.292">questions.json</text><rect fill="#E2E2F0" height="30.2969" rx="2.5" ry="2.5" style="stroke:#181818;stroke-width:0.5;" width="114.8506" x="269.145" y="567.1875"/><text fill="#000000" font-family="sans-serif" font-size="14" lengthAdjust="spacing" textLength="100.8506" x="276.145" y="587.1826">questions.json</text><polygon fill="#181818" points="162.8198,145.7266,172.8198,149.7266,162.8198,153.7266,166.8198,149.7266" style="stroke:#181818;stroke-width:1;"/><line style="stroke:#181818;stroke-width:1;" x1="38.9551" x2="168.8198" y1="149.7266" y2="149.7266"/><text fill="#000000" font-family="sans-serif" font-size="13" lengthAdjust="spacing" textLength="111.8647" x="45.9551" y="144.6606">Click "Start Quiz"</text><polygon fill="#181818" points="314.5703,174.8594,324.5703,178.8594,314.5703,182.8594,318.5703,178.8594" style="stroke:#181818;stroke-width:1;"/><line style="stroke:#181818;stroke-width:1;" x1="174.8198" x2="320.5703" y1="178.8594" y2="178.8594"/><text fill="#000000" font-family="sans-serif" font-size="13" lengthAdjust="spacing" textLength="98.4839" x="181.8198" y="173.7935">Load questions</text><polygon fill="#181818" points="185.8198,203.9922,175.8198,207.9922,185.8198,211.9922,181.8198,207.9922" style="stroke:#181818;stroke-width:1;"/><line style="stroke:#181818;stroke-width:1;stroke-dasharray:2.0,2.0;" x1="179.8198" x2="325.5703" y1="207.9922" y2="207.9922"/><text fill="#000000" font-family="sans-serif" font-size="13" lengthAdjust="spacing" textLength="111.0205" x="191.8198" y="202.9263">Return questions</text><line style="stroke:#181818;stroke-width:1;" x1="174.8198" x2="216.8198" y1="237.125" y2="237.125"/><line style="stroke:#181818;stroke-width:1;" x1="216.8198" x2="216.8198" y1="237.125" y2="250.125"/><line style="stroke:#181818;stroke-width:1;" x1="175.8198" x2="216.8198" y1="250.125" y2="250.125"/><polygon fill="#181818" points="185.8198,246.125,175.8198,250.125,185.8198,254.125,181.8198,250.125" style="stroke:#181818;stroke-width:1;"/><text fill="#000000" font-family="sans-serif" font-size="13" lengthAdjust="spacing" textLength="137.7505" x="181.8198" y="232.0591">Display first question</text><path d="M10,265.125 L86.624,265.125 L86.624,272.2578 L76.624,282.2578 L10,282.2578 L10,265.125 " fill="#EEEEEE" style="stroke:#000000;stroke-width:1.5;"/><rect fill="transparent" height="214.7969" style="stroke:#000000;stroke-width:1.5;" width="312.3535" x="10" y="265.125"/><text fill="#000000" font-family="sans-serif" font-size="13" font-weight="bold" lengthAdjust="spacing" textLength="31.624" x="25" y="278.1919">loop</text><text fill="#000000" font-family="sans-serif" font-size="11" font-weight="bold" lengthAdjust="spacing" textLength="121.5747" x="101.624" y="277.3354">[For each question]</text><polygon fill="#181818" points="162.8198,299.3906,172.8198,303.3906,162.8198,307.3906,166.8198,303.3906" style="stroke:#181818;stroke-width:1;"/><line style="stroke:#181818;stroke-width:1;" x1="38.9551" x2="168.8198" y1="303.3906" y2="303.3906"/><text fill="#000000" font-family="sans-serif" font-size="13" lengthAdjust="spacing" textLength="92.1172" x="45.9551" y="298.3247">Select Answer</text><line style="stroke:#181818;stroke-width:1;" x1="174.8198" x2="216.8198" y1="332.5234" y2="332.5234"/><line style="stroke:#181818;stroke-width:1;" x1="216.8198" x2="216.8198" y1="332.5234" y2="345.5234"/><line style="stroke:#181818;stroke-width:1;" x1="175.8198" x2="216.8198" y1="345.5234" y2="345.5234"/><polygon fill="#181818" points="185.8198,341.5234,175.8198,345.5234,185.8198,349.5234,181.8198,345.5234" style="stroke:#181818;stroke-width:1;"/><text fill="#000000" font-family="sans-serif" font-size="13" lengthAdjust="spacing" textLength="119.939" x="181.8198" y="327.4575">Check correctness</text><line style="stroke:#181818;stroke-width:1;" x1="174.8198" x2="216.8198" y1="374.6563" y2="374.6563"/><line style="stroke:#181818;stroke-width:1;" x1="216.8198" x2="216.8198" y1="374.6563" y2="387.6563"/><line style="stroke:#181818;stroke-width:1;" x1="175.8198" x2="216.8198" y1="387.6563" y2="387.6563"/><polygon fill="#181818" points="185.8198,383.6563,175.8198,387.6563,185.8198,391.6563,181.8198,387.6563" style="stroke:#181818;stroke-width:1;"/><text fill="#000000" font-family="sans-serif" font-size="13" lengthAdjust="spacing" textLength="86.4297" x="181.8198" y="369.5903">Update score</text><line style="stroke:#181818;stroke-width:1;" x1="174.8198" x2="216.8198" y1="416.7891" y2="416.7891"/><line style="stroke:#181818;stroke-width:1;" x1="216.8198" x2="216.8198" y1="416.7891" y2="429.7891"/><line style="stroke:#181818;stroke-width:1;" x1="175.8198" x2="216.8198" y1="429.7891" y2="429.7891"/><polygon fill="#181818" points="185.8198,425.7891,175.8198,429.7891,185.8198,433.7891,181.8198,429.7891" style="stroke:#181818;stroke-width:1;"/><text fill="#000000" font-family="sans-serif" font-size="13" lengthAdjust="spacing" textLength="112.2266" x="181.8198" y="411.7231">Play sound effect</text><line style="stroke:#181818;stroke-width:1;" x1="174.8198" x2="216.8198" y1="458.9219" y2="458.9219"/><line style="stroke:#181818;stroke-width:1;" x1="216.8198" x2="216.8198" y1="458.9219" y2="471.9219"/><line style="stroke:#181818;stroke-width:1;" x1="175.8198" x2="216.8198" y1="471.9219" y2="471.9219"/><polygon fill="#181818" points="185.8198,467.9219,175.8198,471.9219,185.8198,475.9219,181.8198,471.9219" style="stroke:#181818;stroke-width:1;"/><text fill="#000000" font-family="sans-serif" font-size="13" lengthAdjust="spacing" textLength="128.5337" x="181.8198" y="453.856">Show next question</text><line style="stroke:#181818;stroke-width:1;" x1="174.8198" x2="216.8198" y1="508.0547" y2="508.0547"/><line style="stroke:#181818;stroke-width:1;" x1="216.8198" x2="216.8198" y1="508.0547" y2="521.0547"/><line style="stroke:#181818;stroke-width:1;" x1="175.8198" x2="216.8198" y1="521.0547" y2="521.0547"/><polygon fill="#181818" points="185.8198,517.0547,175.8198,521.0547,185.8198,525.0547,181.8198,521.0547" style="stroke:#181818;stroke-width:1;"/><text fill="#000000" font-family="sans-serif" font-size="13" lengthAdjust="spacing" textLength="123.7856" x="181.8198" y="502.9888">Display Final Score</text><polygon fill="#181818" points="162.8198,546.1875,172.8198,550.1875,162.8198,554.1875,166.8198,550.1875" style="stroke:#181818;stroke-width:1;"/><line style="stroke:#181818;stroke-width:1;" x1="38.9551" x2="168.8198" y1="550.1875" y2="550.1875"/><text fill="#000000" font-family="sans-serif" font-size="13" lengthAdjust="spacing" textLength="93.4883" x="45.9551" y="545.1216">Restart or Exit</text><!--SRC=[RP3DJiCm48JlVefHxk41E21LBKL5Y9z6UO2Lio4kgMtiZThoz6mYA8d4TUURyOp5IS-e-7DWRnaRH- -9ZYZnDhYl2nxeo5Z5Q0nP2GbrvcGY9N7MHVA2OkH60Zild5goN80owjqIq_miBlXySyZ1JyXZzV9ip9Y8yauDkCMwT_O3HILgdHeKHk-gZgpgJu4QNAFCT2r_pNkM8VcP_EETn8tBiQSBMfUoN1bZ-X0YjhgCoNP_Ts3Hg-AUhM3byqdt0xFWTSTQsOQKbF2SyrAkOqF2o0hmKdaTw-Gm-0RSjcfUobKNJl1ydfLbt_oxQUiyzQYc9nQrzseSVrBdtP-TV0C0]--></g></svg>