<svg xmlns="http://www.w3.org/2000/svg" xmlns:xlink="http://www.w3.org/1999/xlink" contentStyleType="text/css" data-diagram-type="CLASS" height="594px" preserveAspectRatio="none" style="width:286px;height:594px;background:#FFFFFF;" version="1.1" viewBox="0 0 286 594" width="286px" zoomAndPan="magnify"><title>Class Diagram - Quizy Game App</title><defs/><g><text fill="#000000" font-family="sans-serif" font-size="14" font-weight="bold" lengthAdjust="spacing" textLength="258.0361" x="10" y="22.9951">Class Diagram - Quizy Game App</text><!--class User--><g id="elem_User"><rect codeLine="3" fill="#F1F1F1" height="145.7813" id="User" rx="2.5" ry="2.5" style="stroke:#181818;stroke-width:0.5;" width="198.4023" x="46.8169" y="44.2969"/><ellipse cx="125.813" cy="60.2969" fill="#ADD1B2" rx="11" ry="11" style="stroke:#181818;stroke-width:1;"/><path d="M128.7817,65.9375 Q128.2036,66.2344 127.563,66.375 Q126.9224,66.5313 126.2192,66.5313 Q123.7192,66.5313 122.3911,64.8906 Q121.0786,63.2344 121.0786,60.1094 Q121.0786,56.9844 122.3911,55.3281 Q123.7192,53.6719 126.2192,53.6719 Q126.9224,53.6719 127.563,53.8281 Q128.2192,53.9844 128.7817,54.2813 L128.7817,57 Q128.1567,56.4219 127.563,56.1563 Q126.9692,55.875 126.3442,55.875 Q125.0005,55.875 124.313,56.9531 Q123.6255,58.0156 123.6255,60.1094 Q123.6255,62.2031 124.313,63.2813 Q125.0005,64.3438 126.3442,64.3438 Q126.9692,64.3438 127.563,64.0781 Q128.1567,63.7969 128.7817,63.2188 L128.7817,65.9375 Z " fill="#000000"/><text fill="#000000" font-family="sans-serif" font-size="14" lengthAdjust="spacing" textLength="31.9102" x="146.313" y="65.1436">User</text><line style="stroke:#181818;stroke-width:0.5;" x1="47.8169" x2="244.2192" y1="76.2969" y2="76.2969"/><rect fill="transparent" height="6" style="stroke:#C82930;stroke-width:1;" width="6" x="54.8169" y="86.9453"/><text fill="#000000" font-family="sans-serif" font-size="14" lengthAdjust="spacing" textLength="89.0586" x="66.8169" y="93.292">name: string</text><rect fill="transparent" height="6" style="stroke:#C82930;stroke-width:1;" width="6" x="54.8169" y="103.2422"/><text fill="#000000" font-family="sans-serif" font-size="14" lengthAdjust="spacing" textLength="101.7324" x="66.8169" y="109.5889">score: number</text><rect fill="transparent" height="6" style="stroke:#C82930;stroke-width:1;" width="6" x="54.8169" y="119.5391"/><text fill="#000000" font-family="sans-serif" font-size="14" lengthAdjust="spacing" textLength="172.4023" x="66.8169" y="125.8857">selectedCategory: string</text><line style="stroke:#181818;stroke-width:1;" x1="47.8169" x2="244.2192" y1="133.1875" y2="133.1875"/><ellipse cx="57.8169" cy="146.8359" fill="#84BE84" rx="3" ry="3" style="stroke:#038048;stroke-width:1;"/><text fill="#000000" font-family="sans-serif" font-size="14" lengthAdjust="spacing" textLength="74.6621" x="66.8169" y="150.1826">startQuiz()</text><ellipse cx="57.8169" cy="163.1328" fill="#84BE84" rx="3" ry="3" style="stroke:#038048;stroke-width:1;"/><text fill="#000000" font-family="sans-serif" font-size="14" lengthAdjust="spacing" textLength="104.084" x="66.8169" y="166.4795">selectAnswer()</text><ellipse cx="57.8169" cy="179.4297" fill="#84BE84" rx="3" ry="3" style="stroke:#038048;stroke-width:1;"/><text fill="#000000" font-family="sans-serif" font-size="14" lengthAdjust="spacing" textLength="82.6807" x="66.8169" y="182.7764">viewScore()</text></g><!--class QuizManager--><g id="elem_QuizManager"><rect codeLine="13" fill="#F1F1F1" height="145.7813" id="QuizManager" rx="2.5" ry="2.5" style="stroke:#181818;stroke-width:0.5;" width="179.6514" x="55.8169" y="267.2969"/><ellipse cx="95.6363" cy="283.2969" fill="#ADD1B2" rx="11" ry="11" style="stroke:#181818;stroke-width:1;"/><path d="M98.6051,288.9375 Q98.027,289.2344 97.3863,289.375 Q96.7457,289.5313 96.0426,289.5313 Q93.5426,289.5313 92.2145,287.8906 Q90.902,286.2344 90.902,283.1094 Q90.902,279.9844 92.2145,278.3281 Q93.5426,276.6719 96.0426,276.6719 Q96.7457,276.6719 97.3863,276.8281 Q98.0426,276.9844 98.6051,277.2813 L98.6051,280 Q97.9801,279.4219 97.3863,279.1563 Q96.7926,278.875 96.1676,278.875 Q94.8238,278.875 94.1363,279.9531 Q93.4488,281.0156 93.4488,283.1094 Q93.4488,285.2031 94.1363,286.2813 Q94.8238,287.3438 96.1676,287.3438 Q96.7926,287.3438 97.3863,287.0781 Q97.9801,286.7969 98.6051,286.2188 L98.6051,288.9375 Z " fill="#000000"/><text fill="#000000" font-family="sans-serif" font-size="14" lengthAdjust="spacing" textLength="92.4971" x="115.1518" y="288.1436">QuizManager</text><line style="stroke:#181818;stroke-width:0.5;" x1="56.8169" x2="234.4683" y1="299.2969" y2="299.2969"/><rect fill="transparent" height="6" style="stroke:#C82930;stroke-width:1;" width="6" x="63.8169" y="309.9453"/><text fill="#000000" font-family="sans-serif" font-size="14" lengthAdjust="spacing" textLength="113.9004" x="75.8169" y="316.292">questions: array</text><rect fill="transparent" height="6" style="stroke:#C82930;stroke-width:1;" width="6" x="63.8169" y="326.2422"/><text fill="#000000" font-family="sans-serif" font-size="14" lengthAdjust="spacing" textLength="153.6514" x="75.8169" y="332.5889">currentIndex: number</text><rect fill="transparent" height="6" style="stroke:#C82930;stroke-width:1;" width="6" x="63.8169" y="342.5391"/><text fill="#000000" font-family="sans-serif" font-size="14" lengthAdjust="spacing" textLength="101.7324" x="75.8169" y="348.8857">score: number</text><line style="stroke:#181818;stroke-width:1;" x1="56.8169" x2="234.4683" y1="356.1875" y2="356.1875"/><ellipse cx="66.8169" cy="369.8359" fill="#84BE84" rx="3" ry="3" style="stroke:#038048;stroke-width:1;"/><text fill="#000000" font-family="sans-serif" font-size="14" lengthAdjust="spacing" textLength="116.4365" x="75.8169" y="373.1826">fetchQuestions()</text><ellipse cx="66.8169" cy="386.1328" fill="#84BE84" rx="3" ry="3" style="stroke:#038048;stroke-width:1;"/><text fill="#000000" font-family="sans-serif" font-size="14" lengthAdjust="spacing" textLength="103.4756" x="75.8169" y="389.4795">checkAnswer()</text><ellipse cx="66.8169" cy="402.4297" fill="#84BE84" rx="3" ry="3" style="stroke:#038048;stroke-width:1;"/><text fill="#000000" font-family="sans-serif" font-size="14" lengthAdjust="spacing" textLength="104.8018" x="75.8169" y="405.7764">nextQuestion()</text></g><!--class Question--><g id="elem_Question"><rect codeLine="23" fill="#F1F1F1" height="96.8906" id="Question" rx="2.5" ry="2.5" style="stroke:#181818;stroke-width:0.5;" width="176.4932" x="57.8169" y="490.2969"/><ellipse cx="110.5049" cy="506.2969" fill="#ADD1B2" rx="11" ry="11" style="stroke:#181818;stroke-width:1;"/><path d="M113.4736,511.9375 Q112.8955,512.2344 112.2549,512.375 Q111.6143,512.5313 110.9111,512.5313 Q108.4111,512.5313 107.083,510.8906 Q105.7705,509.2344 105.7705,506.1094 Q105.7705,502.9844 107.083,501.3281 Q108.4111,499.6719 110.9111,499.6719 Q111.6143,499.6719 112.2549,499.8281 Q112.9111,499.9844 113.4736,500.2813 L113.4736,503 Q112.8486,502.4219 112.2549,502.1563 Q111.6611,501.875 111.0361,501.875 Q109.6924,501.875 109.0049,502.9531 Q108.3174,504.0156 108.3174,506.1094 Q108.3174,508.2031 109.0049,509.2813 Q109.6924,510.3438 111.0361,510.3438 Q111.6611,510.3438 112.2549,510.0781 Q112.8486,509.7969 113.4736,509.2188 L113.4736,511.9375 Z " fill="#000000"/><text fill="#000000" font-family="sans-serif" font-size="14" lengthAdjust="spacing" textLength="62.6172" x="131.0049" y="511.1436">Question</text><line style="stroke:#181818;stroke-width:0.5;" x1="58.8169" x2="233.3101" y1="522.2969" y2="522.2969"/><rect fill="transparent" height="6" style="stroke:#C82930;stroke-width:1;" width="6" x="65.8169" y="532.9453"/><text fill="#000000" font-family="sans-serif" font-size="14" lengthAdjust="spacing" textLength="77.2324" x="77.8169" y="539.292">text: string</text><rect fill="transparent" height="6" style="stroke:#C82930;stroke-width:1;" width="6" x="65.8169" y="549.2422"/><text fill="#000000" font-family="sans-serif" font-size="14" lengthAdjust="spacing" textLength="97.6855" x="77.8169" y="555.5889">options: array</text><rect fill="transparent" height="6" style="stroke:#C82930;stroke-width:1;" width="6" x="65.8169" y="565.5391"/><text fill="#000000" font-family="sans-serif" font-size="14" lengthAdjust="spacing" textLength="150.4932" x="77.8169" y="571.8857">correctAnswer: string</text><line style="stroke:#181818;stroke-width:0.5;" x1="58.8169" x2="233.3101" y1="579.1875" y2="579.1875"/></g><!--link User to QuizManager--><g id="link_User_QuizManager"><path codeLine="29" d="M145.8169,190.3569 C145.8169,214.9169 145.8169,236.3769 145.8169,260.9569 " fill="transparent" id="User-to-QuizManager" style="stroke:#181818;stroke-width:1;"/><polygon fill="#181818" points="145.8169,266.9569,149.8169,257.9569,145.8169,261.9569,141.8169,257.9569,145.8169,266.9569" style="stroke:#181818;stroke-width:1;"/><text fill="#000000" font-family="sans-serif" font-size="13" lengthAdjust="spacing" textLength="29.7832" x="146.8169" y="233.3638">uses</text></g><!--link QuizManager to Question--><g id="link_QuizManager_Question"><path codeLine="30" d="M145.8169,413.3469 C145.8169,438.9769 145.8169,461.1769 145.8169,484.2369 " fill="transparent" id="QuizManager-to-Question" style="stroke:#181818;stroke-width:1;"/><polygon fill="#181818" points="145.8169,490.2369,149.8169,481.2369,145.8169,485.2369,141.8169,481.2369,145.8169,490.2369" style="stroke:#181818;stroke-width:1;"/><text fill="#000000" font-family="sans-serif" font-size="13" lengthAdjust="spacing" textLength="59.8584" x="146.8169" y="456.3638">manages</text></g><!--SRC=[PP31JiCm38RlVGeVGQWlq0FIj4c80uS9yG0cyxg8DkbiXwsWlVlIf9qMk4Jobp_EPwlLZc3TeGXiBBQCFTIm3VPdX1Vi2LR3K5KctNy8CVnM40CkNZKWojQr2OZn78aB_ITn9jIHKTgjKQdrFDx7wtWynHfPfwyU7dETNgoSd8Xdz6tfz3wrZlLbyPYUlA73zgPp32HglPC6a1d714rW9gUlRaVdqkolQzRPavh3Tkaq2vW3cQz2oT5PbrHfbTcif35MRCWF_mrzD5mcleLZnxJfkdukHcqW24brZt9a_hU1Fc6v0W00]--></g></svg>