<svg xmlns="http://www.w3.org/2000/svg" xmlns:xlink="http://www.w3.org/1999/xlink" contentStyleType="text/css" data-diagram-type="DESCRIPTION" height="515px" preserveAspectRatio="none" style="width:634px;height:515px;background:#FFFFFF;" version="1.1" viewBox="0 0 634 515" width="634px" zoomAndPan="magnify"><title>Data Flow Diagram - Level 1 (Detailed Flow)</title><defs/><g><text fill="#000000" font-family="sans-serif" font-size="14" font-weight="bold" lengthAdjust="spacing" textLength="348.5371" x="136.1299" y="22.9951">Data Flow Diagram - Level 1 (Detailed Flow)</text><!--cluster Quiz App--><g id="cluster_Quiz App"><rect fill="transparent" height="358" rx="2.5" ry="2.5" style="stroke:#181818;stroke-width:1;" width="385" x="7" y="151.2969"/><text fill="#000000" font-family="sans-serif" font-size="14" font-weight="bold" lengthAdjust="spacing" textLength="70.5674" x="164.2163" y="166.292">Quiz App</text></g><!--entity Request Handler--><g id="elem_Request Handler"><rect fill="#F1F1F1" height="46.2969" rx="2.5" ry="2.5" style="stroke:#181818;stroke-width:0.5;" width="157.0723" x="217.5" y="186.2969"/><rect fill="#F1F1F1" height="10" style="stroke:#181818;stroke-width:0.5;" width="15" x="354.5723" y="191.2969"/><rect fill="#F1F1F1" height="2" style="stroke:#181818;stroke-width:0.5;" width="4" x="352.5723" y="193.2969"/><rect fill="#F1F1F1" height="2" style="stroke:#181818;stroke-width:0.5;" width="4" x="352.5723" y="197.2969"/><text fill="#000000" font-family="sans-serif" font-size="14" lengthAdjust="spacing" textLength="117.0723" x="232.5" y="219.292">Request Handler</text></g><!--entity Question Renderer--><g id="elem_Question Renderer"><rect fill="#F1F1F1" height="46.2969" rx="2.5" ry="2.5" style="stroke:#181818;stroke-width:0.5;" width="171.9063" x="204" y="309.2969"/><rect fill="#F1F1F1" height="10" style="stroke:#181818;stroke-width:0.5;" width="15" x="355.9063" y="314.2969"/><rect fill="#F1F1F1" height="2" style="stroke:#181818;stroke-width:0.5;" width="4" x="353.9063" y="316.2969"/><rect fill="#F1F1F1" height="2" style="stroke:#181818;stroke-width:0.5;" width="4" x="353.9063" y="320.2969"/><text fill="#000000" font-family="sans-serif" font-size="14" lengthAdjust="spacing" textLength="131.9063" x="219" y="342.292">Question Renderer</text></g><!--entity Answer Validator--><g id="elem_Answer Validator"><rect fill="#F1F1F1" height="46.2969" rx="2.5" ry="2.5" style="stroke:#181818;stroke-width:0.5;" width="159.2256" x="23.5" y="186.2969"/><rect fill="#F1F1F1" height="10" style="stroke:#181818;stroke-width:0.5;" width="15" x="162.7256" y="191.2969"/><rect fill="#F1F1F1" height="2" style="stroke:#181818;stroke-width:0.5;" width="4" x="160.7256" y="193.2969"/><rect fill="#F1F1F1" height="2" style="stroke:#181818;stroke-width:0.5;" width="4" x="160.7256" y="197.2969"/><text fill="#000000" font-family="sans-serif" font-size="14" lengthAdjust="spacing" textLength="119.2256" x="38.5" y="219.292">Answer Validator</text></g><!--entity Score Manager--><g id="elem_Score Manager"><rect fill="#F1F1F1" height="46.2969" rx="2.5" ry="2.5" style="stroke:#181818;stroke-width:0.5;" width="145.335" x="23.5" y="309.2969"/><rect fill="#F1F1F1" height="10" style="stroke:#181818;stroke-width:0.5;" width="15" x="148.835" y="314.2969"/><rect fill="#F1F1F1" height="2" style="stroke:#181818;stroke-width:0.5;" width="4" x="146.835" y="316.2969"/><rect fill="#F1F1F1" height="2" style="stroke:#181818;stroke-width:0.5;" width="4" x="146.835" y="320.2969"/><text fill="#000000" font-family="sans-serif" font-size="14" lengthAdjust="spacing" textLength="105.335" x="38.5" y="342.292">Score Manager</text></g><!--entity Feedback Display--><g id="elem_Feedback Display"><rect fill="#F1F1F1" height="46.2969" rx="2.5" ry="2.5" style="stroke:#181818;stroke-width:0.5;" width="163.4912" x="44.5" y="447.2969"/><rect fill="#F1F1F1" height="10" style="stroke:#181818;stroke-width:0.5;" width="15" x="187.9912" y="452.2969"/><rect fill="#F1F1F1" height="2" style="stroke:#181818;stroke-width:0.5;" width="4" x="185.9912" y="454.2969"/><rect fill="#F1F1F1" height="2" style="stroke:#181818;stroke-width:0.5;" width="4" x="185.9912" y="458.2969"/><text fill="#000000" font-family="sans-serif" font-size="14" lengthAdjust="spacing" textLength="123.4912" x="59.5" y="480.292">Feedback Display</text></g><!--entity User--><g id="elem_User"><ellipse cx="434.9551" cy="440.7969" fill="#F1F1F1" rx="8" ry="8" style="stroke:#181818;stroke-width:0.5;"/><path d="M434.9551,448.7969 L434.9551,475.7969 M421.9551,456.7969 L447.9551,456.7969 M434.9551,475.7969 L421.9551,490.7969 M434.9551,475.7969 L447.9551,490.7969 " fill="transparent" style="stroke:#181818;stroke-width:0.5;"/><text fill="#000000" font-family="sans-serif" font-size="14" lengthAdjust="spacing" textLength="31.9102" x="419" y="505.292">User</text></g><!--entity JSON--><g id="elem_JSON"><path d="M235.5,53.2969 C235.5,43.2969 295.9253,43.2969 295.9253,43.2969 C295.9253,43.2969 356.3506,43.2969 356.3506,53.2969 L356.3506,78.5938 C356.3506,88.5938 295.9253,88.5938 295.9253,88.5938 C295.9253,88.5938 235.5,88.5938 235.5,78.5938 L235.5,53.2969 " fill="#F1F1F1" style="stroke:#181818;stroke-width:0.5;"/><path d="M235.5,53.2969 C235.5,63.2969 295.9253,63.2969 295.9253,63.2969 C295.9253,63.2969 356.3506,63.2969 356.3506,53.2969 " fill="transparent" style="stroke:#181818;stroke-width:0.5;"/><text fill="#000000" font-family="sans-serif" font-size="14" lengthAdjust="spacing" textLength="100.8506" x="245.5" y="80.292">questions.json</text></g><!--link User to Request Handler--><g id="link_User_Request Handler"><path d="M451.23,460.2569 C491.39,436.6869 589.67,370.8469 554,309.2969 C518.16,247.4469 442.5809,224.8969 380.7009,216.1469 " fill="transparent" id="User-to-Request Handler" style="stroke:#181818;stroke-width:1;"/><polygon fill="#181818" points="374.76,215.3069,383.1113,220.5276,379.7108,216.0069,384.2314,212.6064,374.76,215.3069" style="stroke:#181818;stroke-width:1;"/><text fill="#000000" font-family="sans-serif" font-size="13" lengthAdjust="spacing" textLength="64.7969" x="562" y="336.8638">Start Quiz</text></g><!--link Request Handler to JSON--><g id="link_Request Handler_JSON"><path d="M315.53,186.1469 C328.93,168.1769 342.97,142.0269 335,118.2969 C331.36,107.4569 328.2321,101.7184 321.2121,93.1484 " fill="transparent" id="Request Handler-to-JSON" style="stroke:#181818;stroke-width:1;"/><polygon fill="#181818" points="317.41,88.5069,320.0187,98.004,320.5784,92.3749,326.2075,92.9345,317.41,88.5069" style="stroke:#181818;stroke-width:1;"/><text fill="#000000" font-family="sans-serif" font-size="13" lengthAdjust="spacing" textLength="105.0093" x="338" y="131.3638">Fetch Questions</text></g><!--link JSON to Request Handler--><g id="link_JSON_Request Handler"><path d="M242.7,88.3269 C230.48,95.9069 219.02,105.7569 212,118.2969 C197.23,144.6869 219.3426,166.2482 246.6426,183.0782 " fill="transparent" id="JSON-to-Request Handler" style="stroke:#181818;stroke-width:1;"/><polygon fill="#181818" points="251.75,186.2269,246.1879,178.0989,247.4938,183.603,241.9897,184.9089,251.75,186.2269" style="stroke:#181818;stroke-width:1;"/><text fill="#000000" font-family="sans-serif" font-size="13" lengthAdjust="spacing" textLength="113.001" x="213" y="131.3638">Return Questions</text></g><!--link Request Handler to Question Renderer--><g id="link_Request Handler_Question Renderer"><path d="M294.9,232.4869 C293.82,254.3269 292.467,281.4642 291.387,303.2542 " fill="transparent" id="Request Handler-to-Question Renderer" style="stroke:#181818;stroke-width:1;"/><polygon fill="#181818" points="291.09,309.2469,295.5306,300.4559,291.3375,304.253,287.5404,300.0599,291.09,309.2469" style="stroke:#181818;stroke-width:1;"/><text fill="#000000" font-family="sans-serif" font-size="13" lengthAdjust="spacing" textLength="101.791" x="295" y="275.3638">Send Questions</text></g><!--link Question Renderer to User--><g id="link_Question Renderer_User"><path d="M288.32,355.3369 C288.39,370.2469 290.98,389.4869 302,402.2969 C329.5,434.2569 355.33,411.4869 392,432.2969 C401.76,437.8369 406.9677,441.6893 414.6077,448.7993 " fill="transparent" id="Question Renderer-to-User" style="stroke:#181818;stroke-width:1;"/><polygon fill="#181818" points="419,452.8869,415.1367,443.8274,415.3398,449.4806,409.6866,449.6837,419,452.8869" style="stroke:#181818;stroke-width:1;"/><text fill="#000000" font-family="sans-serif" font-size="13" lengthAdjust="spacing" textLength="116.9683" x="303" y="398.3638">Display Questions</text></g><!--link User to Answer Validator--><g id="link_User_Answer Validator"><path d="M441.65,432.0769 C447.62,385.5169 449.6,306.5369 405,262.2969 C372.32,229.8669 245.26,240.7269 200,232.2969 C194.31,231.2369 194.3273,231.2843 188.4373,230.0743 " fill="transparent" id="User-to-Answer Validator" style="stroke:#181818;stroke-width:1;"/><polygon fill="#181818" points="182.56,228.8669,190.571,234.5961,187.4577,229.873,192.1808,226.7598,182.56,228.8669" style="stroke:#181818;stroke-width:1;"/><text fill="#000000" font-family="sans-serif" font-size="13" lengthAdjust="spacing" textLength="98.1284" x="444" y="336.8638">Submit Answer</text></g><!--link Answer Validator to Score Manager--><g id="link_Answer Validator_Score Manager"><path d="M101.72,232.4869 C100.45,254.3269 98.8864,281.4669 97.6264,303.2569 " fill="transparent" id="Answer Validator-to-Score Manager" style="stroke:#181818;stroke-width:1;"/><polygon fill="#181818" points="97.28,309.2469,101.7929,300.4928,97.5686,304.2552,93.8062,300.031,97.28,309.2469" style="stroke:#181818;stroke-width:1;"/><text fill="#000000" font-family="sans-serif" font-size="13" lengthAdjust="spacing" textLength="159.707" x="101" y="275.3638">Validate &amp; Update Score</text></g><!--link Score Manager to Feedback Display--><g id="link_Score Manager_Feedback Display"><path d="M100.89,355.4469 C106.47,380.7369 114.2472,416.0078 119.8272,441.2978 " fill="transparent" id="Score Manager-to-Feedback Display" style="stroke:#181818;stroke-width:1;"/><polygon fill="#181818" points="121.12,447.1569,123.0869,437.5064,120.0427,442.2743,115.2748,439.2301,121.12,447.1569" style="stroke:#181818;stroke-width:1;"/><text fill="#000000" font-family="sans-serif" font-size="13" lengthAdjust="spacing" textLength="70.1797" x="112" y="398.3638">Pass Score</text></g><!--link Feedback Display to User--><g id="link_Feedback Display_User"><path d="M207.59,470.2969 C280.01,470.2969 374.15,470.2969 412.84,470.2969 " fill="transparent" id="Feedback Display-to-User" style="stroke:#181818;stroke-width:1;"/><polygon fill="#181818" points="418.84,470.2969,409.84,466.2969,413.84,470.2969,409.84,474.2969,418.84,470.2969" style="stroke:#181818;stroke-width:1;"/><text fill="#000000" font-family="sans-serif" font-size="13" lengthAdjust="spacing" textLength="164.3408" x="231.25" y="463.3638">Show Score / Final Result</text></g><!--SRC=[TLBBJiCm4BplLunwG70eY6iFI9Mg225URLGkg8TjiceDhfFQ3XKW_XtRJKKWvMRDpendrlRAQy64FIFJrGuJnIlB6mnnAs-YSOdJYNXMMif4E2FYmbSMSoUMh1IUpIeu3AQD-i2uhWVu9E1v9jj6dCSrcrABNKHi6X5L6Sp4b69RT6pSJYoUMAkIWtC2ywAoWZisl6ffcKYvvE8r97IrvlS5VH450I_PXUkthRSxVt6L6O0TRlA7UwAO4yFXLJyIHiWzMuyOdVhZA8eUWPU9BzOuv7UKuFzCP-8RQphiuzP7rX4JXND7IiTOKPrgZGxBw2f-2lSs6_sRvKPvx4TqX9AKlzSVP2r1S89vdGw9Gd-PITrxgc3moCuTDFrvfr6-3hzmxtg1J1dMeRbhjFy6]--></g></svg>