<svg xmlns="http://www.w3.org/2000/svg" xmlns:xlink="http://www.w3.org/1999/xlink" contentStyleType="text/css" data-diagram-type="DESCRIPTION" height="391px" preserveAspectRatio="none" style="width:699px;height:391px;background:#FFFFFF;" version="1.1" viewBox="0 0 699 391" width="699px" zoomAndPan="magnify"><title>Component Diagram - Quizy Game App</title><defs/><g><text fill="#000000" font-family="sans-serif" font-size="14" font-weight="bold" lengthAdjust="spacing" textLength="307.0908" x="189.25" y="22.9951">Component Diagram - Quizy Game App</text><!--cluster Quizy Game App--><g id="cluster_Quizy Game App"><path d="M30,43.2969 L160.5889,43.2969 A3.75,3.75 0 0 1 163.0889,45.7969 L170.0889,65.5938 L440,65.5938 A2.5,2.5 0 0 1 442.5,68.0938 L442.5,294.7969 A2.5,2.5 0 0 1 440,297.2969 L30,297.2969 A2.5,2.5 0 0 1 27.5,294.7969 L27.5,45.7969 A2.5,2.5 0 0 1 30,43.2969 " fill="transparent" style="stroke:#000000;stroke-width:1.5;"/><line style="stroke:#000000;stroke-width:1.5;" x1="27.5" x2="170.0889" y1="65.5938" y2="65.5938"/><text fill="#000000" font-family="sans-serif" font-size="14" font-weight="bold" lengthAdjust="spacing" textLength="129.5889" x="31.5" y="58.292">Quizy Game App</text></g><!--entity Frontend UI--><g id="elem_Frontend UI"><rect fill="#F1F1F1" height="62.5938" rx="2.5" ry="2.5" style="stroke:#181818;stroke-width:0.5;" width="138.4824" x="187.5" y="78.2969"/><rect fill="#F1F1F1" height="10" style="stroke:#181818;stroke-width:0.5;" width="15" x="305.9824" y="83.2969"/><rect fill="#F1F1F1" height="2" style="stroke:#181818;stroke-width:0.5;" width="4" x="303.9824" y="85.2969"/><rect fill="#F1F1F1" height="2" style="stroke:#181818;stroke-width:0.5;" width="4" x="303.9824" y="89.2969"/><text fill="#000000" font-family="sans-serif" font-size="14" font-style="italic" lengthAdjust="spacing" textLength="96.4824" x="203.5" y="111.292">&#171;component&#187;</text><text fill="#000000" font-family="sans-serif" font-size="14" lengthAdjust="spacing" textLength="81.9355" x="210.7734" y="127.5889">Frontend UI</text></g><!--entity Questions.json--><g id="elem_Questions.json"><rect fill="#F1F1F1" height="62.5938" rx="2.5" ry="2.5" style="stroke:#181818;stroke-width:0.5;" width="142.9834" x="44" y="218.2969"/><rect fill="#F1F1F1" height="10" style="stroke:#181818;stroke-width:0.5;" width="15" x="166.9834" y="223.2969"/><rect fill="#F1F1F1" height="2" style="stroke:#181818;stroke-width:0.5;" width="4" x="164.9834" y="225.2969"/><rect fill="#F1F1F1" height="2" style="stroke:#181818;stroke-width:0.5;" width="4" x="164.9834" y="229.2969"/><text fill="#000000" font-family="sans-serif" font-size="14" font-style="italic" lengthAdjust="spacing" textLength="96.4824" x="62.2505" y="251.292">&#171;component&#187;</text><text fill="#000000" font-family="sans-serif" font-size="14" lengthAdjust="spacing" textLength="102.9834" x="59" y="267.5889">Questions.json</text></g><!--entity Sound Effects Module--><g id="elem_Sound Effects Module"><rect fill="#F1F1F1" height="62.5938" rx="2.5" ry="2.5" style="stroke:#181818;stroke-width:0.5;" width="191.6895" x="228.5" y="218.2969"/><rect fill="#F1F1F1" height="10" style="stroke:#181818;stroke-width:0.5;" width="15" x="400.1895" y="223.2969"/><rect fill="#F1F1F1" height="2" style="stroke:#181818;stroke-width:0.5;" width="4" x="398.1895" y="225.2969"/><rect fill="#F1F1F1" height="2" style="stroke:#181818;stroke-width:0.5;" width="4" x="398.1895" y="229.2969"/><text fill="#000000" font-family="sans-serif" font-size="14" font-style="italic" lengthAdjust="spacing" textLength="96.4824" x="271.1035" y="251.292">&#171;component&#187;</text><text fill="#000000" font-family="sans-serif" font-size="14" lengthAdjust="spacing" textLength="151.6895" x="243.5" y="267.5889">Sound Effects Module</text></g><g id="elem_GMN8"><path d="M458.5,89.7969 L458.5,105.7969 L325.66,109.7969 L458.5,113.7969 L458.5,130.0625 A0,0 0 0 0 458.5,130.0625 L692.5908,130.0625 A0,0 0 0 0 692.5908,130.0625 L692.5908,99.7969 L682.5908,89.7969 L458.5,89.7969 A0,0 0 0 0 458.5,89.7969 " fill="#FEFFDD" style="stroke:#181818;stroke-width:0.5;"/><path d="M682.5908,89.7969 L682.5908,99.7969 L692.5908,99.7969 L682.5908,89.7969 " fill="#FEFFDD" style="stroke:#181818;stroke-width:0.5;"/><text fill="#000000" font-family="sans-serif" font-size="13" lengthAdjust="spacing" textLength="213.0908" x="464.5" y="106.8638">Built with Next.js + Tailwind CSS</text><text fill="#000000" font-family="sans-serif" font-size="13" lengthAdjust="spacing" textLength="185.6372" x="464.5" y="121.9966">Handles all user interactions</text></g><g id="elem_GMN11"><path d="M6,344.2969 L6,384.5625 A0,0 0 0 0 6,384.5625 L198.7295,384.5625 A0,0 0 0 0 198.7295,384.5625 L198.7295,354.2969 L188.7295,344.2969 L108.7,344.2969 L111.95,281.5369 L100.7,344.2969 L6,344.2969 A0,0 0 0 0 6,344.2969 " fill="#FEFFDD" style="stroke:#181818;stroke-width:0.5;"/><path d="M188.7295,344.2969 L188.7295,354.2969 L198.7295,354.2969 L188.7295,344.2969 " fill="#FEFFDD" style="stroke:#181818;stroke-width:0.5;"/><text fill="#000000" font-family="sans-serif" font-size="13" lengthAdjust="spacing" textLength="171.7295" x="12" y="361.3638">Local file storing quiz data</text><text fill="#000000" font-family="sans-serif" font-size="13" lengthAdjust="spacing" textLength="124.0586" x="12" y="376.4966">Structured as JSON</text></g><g id="elem_GMN14"><path d="M234,344.2969 L234,384.5625 A0,0 0 0 0 234,384.5625 L441.4688,384.5625 A0,0 0 0 0 441.4688,384.5625 L441.4688,354.2969 L431.4688,344.2969 L339.3,344.2969 L328.05,281.5369 L331.3,344.2969 L234,344.2969 A0,0 0 0 0 234,344.2969 " fill="#FEFFDD" style="stroke:#181818;stroke-width:0.5;"/><path d="M431.4688,344.2969 L431.4688,354.2969 L441.4688,354.2969 L431.4688,344.2969 " fill="#FEFFDD" style="stroke:#181818;stroke-width:0.5;"/><text fill="#000000" font-family="sans-serif" font-size="13" lengthAdjust="spacing" textLength="186.4688" x="240" y="361.3638">Plays correct/incorrect audio</text><text fill="#000000" font-family="sans-serif" font-size="13" lengthAdjust="spacing" textLength="182.4316" x="240" y="376.4966">Provides real-time feedback</text></g><!--link Frontend UI to Questions.json--><g id="link_Frontend UI_Questions.json"><path d="M187.24,135.2969 C169.67,144.3069 152.2,156.1269 139.5,171.2969 C128.47,184.4769 123.7234,196.8229 120.5034,212.2829 " fill="transparent" id="Frontend UI-to-Questions.json" style="stroke:#181818;stroke-width:1;"/><polygon fill="#181818" points="119.28,218.1569,125.0311,210.1616,120.2995,213.2619,117.1992,208.5303,119.28,218.1569" style="stroke:#181818;stroke-width:1;"/><text fill="#000000" font-family="sans-serif" font-size="13" lengthAdjust="spacing" textLength="136.3159" x="140.5" y="184.3638">Loads quiz questions</text></g><!--link Frontend UI to Sound Effects Module--><g id="link_Frontend UI_Sound Effects Module"><path d="M271.59,141.4269 C282.86,164.2969 295.5379,190.0249 306.7979,212.8749 " fill="transparent" id="Frontend UI-to-Sound Effects Module" style="stroke:#181818;stroke-width:1;"/><polygon fill="#181818" points="309.45,218.2569,309.0598,208.4158,307.2399,213.7719,301.8838,211.9519,309.45,218.2569" style="stroke:#181818;stroke-width:1;"/><text fill="#000000" font-family="sans-serif" font-size="13" lengthAdjust="spacing" textLength="168.5176" x="295.5" y="184.3638">Triggers sound on answer</text></g><!--SRC=[VL9BJm8n4BxtLqou6lHE28dYEuYGnPFnC6ndbz7ImNOgel6_MnwQ81kJfcawttoFTfJL4VHblX1FNk6SiGuuXpQC4t-iu0hd1AUBXJ4BB5-m9cZj5rhmQG3oUhmCufMyXOUR9-Xson_ENczT7IUAokBZyNCKtm0e9ENUYwgYKYFSYKsE3c47Gkrsxv2y0mD16-4rMytRhjZSswpRWKdWkgOG8Mu0uW5zN58mviiOBqgG0JC5gVPPpLbYfx1adS6GtZLRWYEO8BibPqI_ACmrUkie0Ze7AL80pjq1owtBDS-QVwSo5LMPRsJ-n3G3AT51nVa7eqfWNsyJMrGqXOPKQWfa0IFS5lV3VvWR7y6C7AuYb192lZvXlpi19ijYHa7UsEOOWT2rbVCyL4HsckVaL-aR]--></g></svg>