<svg xmlns="http://www.w3.org/2000/svg" xmlns:xlink="http://www.w3.org/1999/xlink" viewBox="0,0,256,256" width="96px" height="96px" fill-rule="nonzero"><g fill="none" fill-rule="nonzero" stroke="none" stroke-width="1" stroke-linecap="butt" stroke-linejoin="miter" stroke-miterlimit="10" stroke-dasharray="" stroke-dashoffset="0" font-family="none" font-weight="none" font-size="none" text-anchor="none" style="mix-blend-mode: normal"><g transform="scale(5.33333,5.33333)"><path d="M6,10c0,-2.209 1.791,-4 4,-4h28c2.209,0 4,1.791 4,4v28c0,2.209 -1.791,4 -4,4h-28c-2.209,0 -4,-1.791 -4,-4z" fill="#111be4"></path><path d="M37,36l-3.664,-4.478c1.663,-2.06 2.664,-4.675 2.664,-7.522c0,-6.617 -5.383,-12 -12,-12c-6.617,0 -12,5.383 -12,12c0,6.617 5.383,12 12,12c2.095,0 4.065,-0.543 5.781,-1.49l1.219,1.49zM24,31c-3.86,0 -7,-3.141 -7,-7c0,-3.859 3.14,-7 7,-7c3.86,0 7,3.141 7,7c0,1.278 -0.35,2.473 -0.95,3.505l-2.05,-2.505h-6l4.519,5.523c-0.783,0.304 -1.63,0.477 -2.519,0.477z" fill="#ffffff"></path></g></g></svg>